<svg width="795" height="688" viewBox="0 0 795 688" fill="none" xmlns="http://www.w3.org/2000/svg">
<path d="M688 344C688 264.924 660.757 188.263 610.856 126.92C560.956 65.5773 491.445 23.2993 414.025 7.20255C336.605 -8.89417 256.003 2.17336 185.787 38.5421C115.571 74.9109 60.028 134.36 28.5086 206.883C-3.01078 279.405 -8.58239 360.572 12.7317 436.722C34.0457 512.871 80.944 579.352 145.532 624.974C210.12 670.596 288.454 692.574 367.347 687.207C446.241 681.84 520.876 649.457 578.691 595.508L456.808 464.892C429.019 490.823 393.144 506.389 355.222 508.968C317.301 511.548 279.648 500.984 248.603 479.055C217.557 457.126 195.015 425.171 184.77 388.568C174.525 351.966 177.203 312.951 192.353 278.092C207.504 243.233 234.201 214.658 267.952 197.176C301.703 179.695 340.445 174.375 377.659 182.112C414.872 189.849 448.284 210.171 472.269 239.657C496.255 269.142 509.35 305.991 509.35 344H688Z" fill="black"/>
<path d="M605.337 489.273L442.841 316.476L769.309 317.876L605.337 489.273Z" fill="black"/>
</svg>
